<mxfile host="app.diagrams.net" agent="Mozilla/5.0 (X11; Ubuntu; Linux x86_64; rv:132.0) Gecko/20100101 Firefox/132.0" version="25.0.1">
  <diagram name="Page-1" id="qkWQUntvuR03xnVk9CKl">
    <mxGraphModel dx="1049" dy="612" grid="0" gridSize="10" guides="1" tooltips="1" connect="1" arrows="1" fold="1" page="0" pageScale="1" pageWidth="850" pageHeight="1100" math="1" shadow="0">
      <root>
        <mxCell id="0" />
        <mxCell id="1" parent="0" />
        <mxCell id="lhCSw-sXu7dCyDBw4n1x-41" value="" style="endArrow=none;html=1;rounded=0;endFill=0;startArrow=diamond;startFill=1;strokeWidth=1;fontFamily=computer modern;fontSource=https%3A%2F%2Fwww.1001fonts.com%2Fdownload%2Ffont%2Fcmu.classical-serif-italic.ttf;fontStyle=0" parent="1" edge="1">
          <mxGeometry width="50" height="50" relative="1" as="geometry">
            <mxPoint x="519.17" y="280" as="sourcePoint" />
            <mxPoint x="520" y="500" as="targetPoint" />
          </mxGeometry>
        </mxCell>
        <mxCell id="lhCSw-sXu7dCyDBw4n1x-42" value="" style="endArrow=none;html=1;rounded=0;endFill=0;startArrow=diamond;startFill=1;fontFamily=computer modern;fontSource=https%3A%2F%2Fwww.1001fonts.com%2Fdownload%2Ffont%2Fcmu.classical-serif-italic.ttf;fontStyle=0" parent="1" edge="1">
          <mxGeometry width="50" height="50" relative="1" as="geometry">
            <mxPoint x="640" y="280" as="sourcePoint" />
            <mxPoint x="640" y="500" as="targetPoint" />
          </mxGeometry>
        </mxCell>
        <mxCell id="lhCSw-sXu7dCyDBw4n1x-33" value="" style="endArrow=none;html=1;rounded=0;endFill=0;startArrow=diamond;startFill=1;fontFamily=computer modern;fontSource=https%3A%2F%2Fwww.1001fonts.com%2Fdownload%2Ffont%2Fcmu.classical-serif-italic.ttf;fontStyle=0" parent="1" edge="1">
          <mxGeometry width="50" height="50" relative="1" as="geometry">
            <mxPoint x="400" y="280" as="sourcePoint" />
            <mxPoint x="400" y="500" as="targetPoint" />
          </mxGeometry>
        </mxCell>
        <mxCell id="lhCSw-sXu7dCyDBw4n1x-2" value="&lt;font&gt;Satellite&lt;/font&gt;" style="text;html=1;align=center;verticalAlign=middle;whiteSpace=wrap;rounded=0;fontFamily=computer modern;fontSource=https%3A%2F%2Fwww.1001fonts.com%2Fdownload%2Ffont%2Fcmu.classical-serif-italic.ttf;fontStyle=0" parent="1" vertex="1">
          <mxGeometry x="80" y="300" width="80" height="20" as="geometry" />
        </mxCell>
        <mxCell id="lhCSw-sXu7dCyDBw4n1x-3" value="&lt;div&gt;&lt;font&gt;ID=0&lt;/font&gt;&lt;/div&gt;" style="text;html=1;align=center;verticalAlign=middle;whiteSpace=wrap;rounded=0;fontFamily=computer modern;fontSource=https%3A%2F%2Fwww.1001fonts.com%2Fdownload%2Ffont%2Fcmu.classical-serif-italic.ttf;fontStyle=0" parent="1" vertex="1">
          <mxGeometry x="80" y="320" width="80" height="40" as="geometry" />
        </mxCell>
        <mxCell id="lhCSw-sXu7dCyDBw4n1x-4" value="&lt;div&gt;&lt;font&gt;ID=1&lt;/font&gt;&lt;/div&gt;" style="text;html=1;align=center;verticalAlign=middle;whiteSpace=wrap;rounded=0;fontFamily=computer modern;fontSource=https%3A%2F%2Fwww.1001fonts.com%2Fdownload%2Ffont%2Fcmu.classical-serif-italic.ttf;fontStyle=0" parent="1" vertex="1">
          <mxGeometry x="80" y="360" width="80" height="40" as="geometry" />
        </mxCell>
        <mxCell id="lhCSw-sXu7dCyDBw4n1x-5" value="&lt;div&gt;&lt;font&gt;ID=2&lt;/font&gt;&lt;/div&gt;" style="text;html=1;align=center;verticalAlign=middle;whiteSpace=wrap;rounded=0;fontFamily=computer modern;fontSource=https%3A%2F%2Fwww.1001fonts.com%2Fdownload%2Ffont%2Fcmu.classical-serif-italic.ttf;fontStyle=0" parent="1" vertex="1">
          <mxGeometry x="80" y="400" width="80" height="40" as="geometry" />
        </mxCell>
        <mxCell id="lhCSw-sXu7dCyDBw4n1x-6" value="&lt;div&gt;&lt;font&gt;ID=n&lt;/font&gt;&lt;/div&gt;" style="text;html=1;align=center;verticalAlign=middle;whiteSpace=wrap;rounded=0;fontFamily=computer modern;fontSource=https%3A%2F%2Fwww.1001fonts.com%2Fdownload%2Ffont%2Fcmu.classical-serif-italic.ttf;fontStyle=0" parent="1" vertex="1">
          <mxGeometry x="80" y="450" width="80" height="40" as="geometry" />
        </mxCell>
        <mxCell id="lhCSw-sXu7dCyDBw4n1x-9" value="$$\dots$$" style="text;html=1;align=center;verticalAlign=middle;whiteSpace=wrap;rounded=0;fontFamily=computer modern;fontSource=https%3A%2F%2Fwww.1001fonts.com%2Fdownload%2Ffont%2Fcmu.classical-serif-italic.ttf;fontStyle=0" parent="1" vertex="1">
          <mxGeometry x="80" y="430" width="80" height="40" as="geometry" />
        </mxCell>
        <mxCell id="lhCSw-sXu7dCyDBw4n1x-12" value="Idle ..." style="shape=hexagon;perimeter=hexagonPerimeter2;whiteSpace=wrap;html=1;fixedSize=1;size=10;fillColor=none;labelBackgroundColor=default;fontFamily=computer modern;fontSource=https%3A%2F%2Fwww.1001fonts.com%2Fdownload%2Ffont%2Fcmu.classical-serif-italic.ttf;fontStyle=0" parent="1" vertex="1">
          <mxGeometry x="160" y="325" width="120" height="30" as="geometry" />
        </mxCell>
        <mxCell id="lhCSw-sXu7dCyDBw4n1x-14" value="" style="endArrow=classic;html=1;rounded=0;entryX=0;entryY=0.5;entryDx=0;entryDy=0;fontFamily=computer modern;fontSource=https%3A%2F%2Fwww.1001fonts.com%2Fdownload%2Ffont%2Fcmu.classical-serif-italic.ttf;fontStyle=0" parent="1" target="lhCSw-sXu7dCyDBw4n1x-24" edge="1">
          <mxGeometry width="50" height="50" relative="1" as="geometry">
            <mxPoint x="250" y="280" as="sourcePoint" />
            <mxPoint x="280" y="320" as="targetPoint" />
            <Array as="points">
              <mxPoint x="260" y="310" />
              <mxPoint x="270" y="300" />
            </Array>
          </mxGeometry>
        </mxCell>
        <mxCell id="lhCSw-sXu7dCyDBw4n1x-19" value="&lt;font data-font-src=&quot;https://www.1001fonts.com/download/font/cmu.classical-serif-italic.ttf&quot;&gt;Idle&lt;/font&gt;&lt;font data-font-src=&quot;https://www.1001fonts.com/download/font/cmu.classical-serif-italic.ttf&quot;&gt;, listens for ID=0&lt;/font&gt;" style="shape=hexagon;perimeter=hexagonPerimeter2;whiteSpace=wrap;html=1;fixedSize=1;size=10;fillColor=none;labelBackgroundColor=default;fontFamily=computer modern;fontSource=https%3A%2F%2Fwww.1001fonts.com%2Fdownload%2Ffont%2Fcmu.classical-serif-italic.ttf;fontStyle=0" parent="1" vertex="1">
          <mxGeometry x="160" y="365" width="240" height="30" as="geometry" />
        </mxCell>
        <mxCell id="lhCSw-sXu7dCyDBw4n1x-20" value="&lt;font&gt;Idle, listens for ID=1&lt;/font&gt;" style="shape=hexagon;perimeter=hexagonPerimeter2;whiteSpace=wrap;html=1;fixedSize=1;size=10;fillColor=none;labelBackgroundColor=default;fontFamily=computer modern;fontSource=https%3A%2F%2Fwww.1001fonts.com%2Fdownload%2Ffont%2Fcmu.classical-serif-italic.ttf;fontStyle=0" parent="1" vertex="1">
          <mxGeometry x="160" y="405" width="360" height="30" as="geometry" />
        </mxCell>
        <mxCell id="lhCSw-sXu7dCyDBw4n1x-21" value="&lt;font data-font-src=&quot;https://www.1001fonts.com/download/font/cmu.classical-serif-italic.ttf&quot;&gt;IDLE, listens for ID=n-1&lt;br&gt;&lt;/font&gt;" style="shape=hexagon;perimeter=hexagonPerimeter2;whiteSpace=wrap;html=1;fixedSize=1;size=10;fillColor=none;labelBackgroundColor=default;fontFamily=computer modern;fontSource=https%3A%2F%2Fwww.1001fonts.com%2Fdownload%2Ffont%2Fcmu.classical-serif-italic.ttf;fontStyle=0" parent="1" vertex="1">
          <mxGeometry x="160" y="455" width="480" height="30" as="geometry" />
        </mxCell>
        <mxCell id="lhCSw-sXu7dCyDBw4n1x-23" value="&lt;div&gt;&lt;font data-font-src=&quot;https://www.1001fonts.com/download/font/cmu.classical-serif-italic.ttf&quot;&gt;Backstopper: &lt;br&gt;&lt;/font&gt;&lt;/div&gt;&lt;div&gt;&lt;font data-font-src=&quot;https://www.1001fonts.com/download/font/cmu.classical-serif-italic.ttf&quot;&gt;No activity at all for 10s&lt;/font&gt;&lt;/div&gt;" style="text;html=1;align=center;verticalAlign=middle;whiteSpace=wrap;rounded=0;fontFamily=computer modern;fontSource=https%3A%2F%2Fwww.1001fonts.com%2Fdownload%2Ffont%2Fcmu.classical-serif-italic.ttf;fontStyle=0" parent="1" vertex="1">
          <mxGeometry x="100" y="260" width="150" height="40" as="geometry" />
        </mxCell>
        <mxCell id="lhCSw-sXu7dCyDBw4n1x-24" value="&lt;font&gt;Transmitting&lt;/font&gt;" style="shape=hexagon;perimeter=hexagonPerimeter2;whiteSpace=wrap;html=1;fixedSize=1;size=10;fillColor=none;labelBackgroundColor=default;fontFamily=computer modern;fontSource=https%3A%2F%2Fwww.1001fonts.com%2Fdownload%2Ffont%2Fcmu.classical-serif-italic.ttf;fontStyle=0" parent="1" vertex="1">
          <mxGeometry x="280" y="325" width="120" height="30" as="geometry" />
        </mxCell>
        <mxCell id="lhCSw-sXu7dCyDBw4n1x-26" value="&lt;font&gt;Transmitting&lt;/font&gt;" style="shape=hexagon;perimeter=hexagonPerimeter2;whiteSpace=wrap;html=1;fixedSize=1;size=10;fillColor=none;labelBackgroundColor=default;fontFamily=computer modern;fontSource=https%3A%2F%2Fwww.1001fonts.com%2Fdownload%2Ffont%2Fcmu.classical-serif-italic.ttf;fontStyle=0" parent="1" vertex="1">
          <mxGeometry x="400" y="365" width="120" height="30" as="geometry" />
        </mxCell>
        <mxCell id="lhCSw-sXu7dCyDBw4n1x-27" value="&lt;font&gt;Transmitting&lt;/font&gt;" style="shape=hexagon;perimeter=hexagonPerimeter2;whiteSpace=wrap;html=1;fixedSize=1;size=10;fillColor=none;labelBackgroundColor=default;fontFamily=computer modern;fontSource=https%3A%2F%2Fwww.1001fonts.com%2Fdownload%2Ffont%2Fcmu.classical-serif-italic.ttf;fontStyle=0" parent="1" vertex="1">
          <mxGeometry x="520" y="405" width="120" height="30" as="geometry" />
        </mxCell>
        <mxCell id="lhCSw-sXu7dCyDBw4n1x-28" value="&lt;font&gt;Listening&lt;br&gt;&lt;/font&gt;" style="shape=hexagon;perimeter=hexagonPerimeter2;whiteSpace=wrap;html=1;fixedSize=1;size=10;fillColor=none;labelBackgroundColor=default;fontFamily=computer modern;fontSource=https%3A%2F%2Fwww.1001fonts.com%2Fdownload%2Ffont%2Fcmu.classical-serif-italic.ttf;fontStyle=0" parent="1" vertex="1">
          <mxGeometry x="400" y="325" width="120" height="30" as="geometry" />
        </mxCell>
        <mxCell id="lhCSw-sXu7dCyDBw4n1x-29" value="Idle, listens for ID=n" style="shape=hexagon;perimeter=hexagonPerimeter2;whiteSpace=wrap;html=1;fixedSize=1;size=10;fillColor=none;labelBackgroundColor=default;fontFamily=computer modern;fontSource=https%3A%2F%2Fwww.1001fonts.com%2Fdownload%2Ffont%2Fcmu.classical-serif-italic.ttf;fontStyle=0" parent="1" vertex="1">
          <mxGeometry x="520" y="325" width="240" height="30" as="geometry" />
        </mxCell>
        <mxCell id="lhCSw-sXu7dCyDBw4n1x-30" value="&lt;font&gt;Listening&lt;br&gt;&lt;/font&gt;" style="shape=hexagon;perimeter=hexagonPerimeter2;whiteSpace=wrap;html=1;fixedSize=1;size=10;fillColor=none;labelBackgroundColor=default;fontFamily=computer modern;fontSource=https%3A%2F%2Fwww.1001fonts.com%2Fdownload%2Ffont%2Fcmu.classical-serif-italic.ttf;fontStyle=0" parent="1" vertex="1">
          <mxGeometry x="520" y="365" width="120" height="30" as="geometry" />
        </mxCell>
        <mxCell id="lhCSw-sXu7dCyDBw4n1x-31" value="&lt;font&gt;Listening&lt;br&gt;&lt;/font&gt;" style="shape=hexagon;perimeter=hexagonPerimeter2;whiteSpace=wrap;html=1;fixedSize=1;size=10;fillColor=none;labelBackgroundColor=default;fontFamily=computer modern;fontSource=https%3A%2F%2Fwww.1001fonts.com%2Fdownload%2Ffont%2Fcmu.classical-serif-italic.ttf;fontStyle=0" parent="1" vertex="1">
          <mxGeometry x="640" y="405" width="120" height="30" as="geometry" />
        </mxCell>
        <mxCell id="lhCSw-sXu7dCyDBw4n1x-32" value="Idle ..." style="shape=hexagon;perimeter=hexagonPerimeter2;whiteSpace=wrap;html=1;fixedSize=1;size=10;fillColor=none;labelBackgroundColor=default;fontFamily=computer modern;fontSource=https%3A%2F%2Fwww.1001fonts.com%2Fdownload%2Ffont%2Fcmu.classical-serif-italic.ttf;fontStyle=0" parent="1" vertex="1">
          <mxGeometry x="640" y="365" width="120" height="30" as="geometry" />
        </mxCell>
        <mxCell id="lhCSw-sXu7dCyDBw4n1x-34" value="&lt;font&gt;Transmitting&lt;/font&gt;" style="shape=hexagon;perimeter=hexagonPerimeter2;whiteSpace=wrap;html=1;fixedSize=1;size=10;fillColor=none;fontFamily=computer modern;fontSource=https%3A%2F%2Fwww.1001fonts.com%2Fdownload%2Ffont%2Fcmu.classical-serif-italic.ttf;fontStyle=0" parent="1" vertex="1">
          <mxGeometry x="640" y="455" width="120" height="30" as="geometry" />
        </mxCell>
        <mxCell id="lhCSw-sXu7dCyDBw4n1x-43" value="" style="endArrow=none;html=1;rounded=0;endFill=0;startArrow=diamond;startFill=1;strokeWidth=1;fontFamily=computer modern;fontSource=https%3A%2F%2Fwww.1001fonts.com%2Fdownload%2Ffont%2Fcmu.classical-serif-italic.ttf;" parent="1" edge="1">
          <mxGeometry width="50" height="50" relative="1" as="geometry">
            <mxPoint x="359.99999999999994" y="600" as="sourcePoint" />
            <mxPoint x="360" y="800" as="targetPoint" />
          </mxGeometry>
        </mxCell>
        <mxCell id="lhCSw-sXu7dCyDBw4n1x-45" value="" style="endArrow=none;html=1;rounded=0;endFill=0;startArrow=diamond;startFill=1;fontFamily=computer modern;fontSource=https%3A%2F%2Fwww.1001fonts.com%2Fdownload%2Ffont%2Fcmu.classical-serif-italic.ttf;" parent="1" edge="1">
          <mxGeometry width="50" height="50" relative="1" as="geometry">
            <mxPoint x="240" y="600" as="sourcePoint" />
            <mxPoint x="240" y="800" as="targetPoint" />
          </mxGeometry>
        </mxCell>
        <mxCell id="lhCSw-sXu7dCyDBw4n1x-46" value="&lt;font&gt;Satellite&lt;/font&gt;" style="text;html=1;align=center;verticalAlign=middle;whiteSpace=wrap;rounded=0;fontFamily=computer modern;fontSource=https%3A%2F%2Fwww.1001fonts.com%2Fdownload%2Ffont%2Fcmu.classical-serif-italic.ttf;" parent="1" vertex="1">
          <mxGeometry x="80" y="620" width="80" height="20" as="geometry" />
        </mxCell>
        <mxCell id="lhCSw-sXu7dCyDBw4n1x-48" value="&lt;div&gt;&lt;font&gt;ID=n&lt;/font&gt;&lt;/div&gt;" style="text;html=1;align=center;verticalAlign=middle;whiteSpace=wrap;rounded=0;fontFamily=computer modern;fontSource=https%3A%2F%2Fwww.1001fonts.com%2Fdownload%2Ffont%2Fcmu.classical-serif-italic.ttf;" parent="1" vertex="1">
          <mxGeometry x="80" y="640" width="80" height="40" as="geometry" />
        </mxCell>
        <mxCell id="lhCSw-sXu7dCyDBw4n1x-49" value="&lt;div&gt;&lt;font&gt;ID=n+1&lt;/font&gt;&lt;/div&gt;" style="text;html=1;align=center;verticalAlign=middle;whiteSpace=wrap;rounded=0;fontFamily=computer modern;fontSource=https%3A%2F%2Fwww.1001fonts.com%2Fdownload%2Ffont%2Fcmu.classical-serif-italic.ttf;" parent="1" vertex="1">
          <mxGeometry x="80" y="750" width="80" height="40" as="geometry" />
        </mxCell>
        <mxCell id="lhCSw-sXu7dCyDBw4n1x-52" value="$$\dots$$" style="text;html=1;align=center;verticalAlign=middle;whiteSpace=wrap;rounded=0;fontFamily=computer modern;fontSource=https%3A%2F%2Fwww.1001fonts.com%2Fdownload%2Ffont%2Fcmu.classical-serif-italic.ttf;" parent="1" vertex="1">
          <mxGeometry x="80" y="780" width="80" height="40" as="geometry" />
        </mxCell>
        <mxCell id="lhCSw-sXu7dCyDBw4n1x-55" value="Idle" style="shape=hexagon;perimeter=hexagonPerimeter2;whiteSpace=wrap;html=1;fixedSize=1;size=10;fillColor=none;labelBackgroundColor=default;fontFamily=computer modern;fontSource=https%3A%2F%2Fwww.1001fonts.com%2Fdownload%2Ffont%2Fcmu.classical-serif-italic.ttf;" parent="1" vertex="1">
          <mxGeometry x="160" y="645" width="80" height="30" as="geometry" />
        </mxCell>
        <mxCell id="lhCSw-sXu7dCyDBw4n1x-56" value="&lt;font&gt;Idle, listens for ID=n&lt;/font&gt;" style="shape=hexagon;perimeter=hexagonPerimeter2;whiteSpace=wrap;html=1;fixedSize=1;size=10;fillColor=none;labelBackgroundColor=default;fontFamily=computer modern;fontSource=https%3A%2F%2Fwww.1001fonts.com%2Fdownload%2Ffont%2Fcmu.classical-serif-italic.ttf;" parent="1" vertex="1">
          <mxGeometry x="160" y="755" width="430" height="30" as="geometry" />
        </mxCell>
        <mxCell id="lhCSw-sXu7dCyDBw4n1x-61" value="&lt;font&gt;Transmitting&lt;/font&gt;" style="shape=hexagon;perimeter=hexagonPerimeter2;whiteSpace=wrap;html=1;fixedSize=1;size=10;fillColor=none;labelBackgroundColor=default;fontFamily=computer modern;fontSource=https%3A%2F%2Fwww.1001fonts.com%2Fdownload%2Ffont%2Fcmu.classical-serif-italic.ttf;" parent="1" vertex="1">
          <mxGeometry x="240" y="645" width="120" height="30" as="geometry" />
        </mxCell>
        <mxCell id="lhCSw-sXu7dCyDBw4n1x-65" value="&lt;font&gt;Listening&lt;br&gt;&lt;/font&gt;" style="shape=hexagon;perimeter=hexagonPerimeter2;whiteSpace=wrap;html=1;fixedSize=1;size=10;fillColor=none;labelBackgroundColor=default;fontFamily=computer modern;fontSource=https%3A%2F%2Fwww.1001fonts.com%2Fdownload%2Ffont%2Fcmu.classical-serif-italic.ttf;" parent="1" vertex="1">
          <mxGeometry x="360" y="645" width="160" height="30" as="geometry" />
        </mxCell>
        <mxCell id="lhCSw-sXu7dCyDBw4n1x-70" value="&lt;font&gt;Transmitting&lt;/font&gt;" style="shape=hexagon;perimeter=hexagonPerimeter2;whiteSpace=wrap;html=1;fixedSize=1;size=10;fillColor=none;labelBackgroundColor=default;fontFamily=computer modern;fontSource=https%3A%2F%2Fwww.1001fonts.com%2Fdownload%2Ffont%2Fcmu.classical-serif-italic.ttf;" parent="1" vertex="1">
          <mxGeometry x="590" y="755" width="120" height="30" as="geometry" />
        </mxCell>
        <mxCell id="lhCSw-sXu7dCyDBw4n1x-71" value="" style="endArrow=classic;html=1;rounded=0;exitX=1;exitY=0.5;exitDx=0;exitDy=0;fontFamily=computer modern;fontSource=https%3A%2F%2Fwww.1001fonts.com%2Fdownload%2Ffont%2Fcmu.classical-serif-italic.ttf;" parent="1" source="lhCSw-sXu7dCyDBw4n1x-73" edge="1">
          <mxGeometry width="50" height="50" relative="1" as="geometry">
            <mxPoint x="380" y="735" as="sourcePoint" />
            <mxPoint x="360" y="755" as="targetPoint" />
            <Array as="points">
              <mxPoint x="350" y="730" />
            </Array>
          </mxGeometry>
        </mxCell>
        <mxCell id="lhCSw-sXu7dCyDBw4n1x-75" value="" style="endArrow=none;html=1;rounded=0;endFill=0;startArrow=diamond;startFill=1;strokeWidth=1;fontFamily=computer modern;fontSource=https%3A%2F%2Fwww.1001fonts.com%2Fdownload%2Ffont%2Fcmu.classical-serif-italic.ttf;" parent="1" edge="1">
          <mxGeometry width="50" height="50" relative="1" as="geometry">
            <mxPoint x="590" y="600" as="sourcePoint" />
            <mxPoint x="590" y="800" as="targetPoint" />
          </mxGeometry>
        </mxCell>
        <mxCell id="lhCSw-sXu7dCyDBw4n1x-77" value="&lt;font data-font-src=&quot;https://www.1001fonts.com/download/font/cmu.classical-serif-italic.ttf&quot;&gt;&lt;span style=&quot;background-color: rgb(255, 255, 255);&quot;&gt;No transmission from ID=n+1, retrying&lt;/span&gt;&lt;/font&gt;" style="text;html=1;align=center;verticalAlign=middle;whiteSpace=wrap;rounded=0;fontFamily=computer modern;fontSource=https%3A%2F%2Fwww.1001fonts.com%2Fdownload%2Ffont%2Fcmu.classical-serif-italic.ttf;" parent="1" vertex="1">
          <mxGeometry x="360" y="690" width="130" height="20" as="geometry" />
        </mxCell>
        <mxCell id="lhCSw-sXu7dCyDBw4n1x-79" value="" style="endArrow=classic;html=1;rounded=0;exitX=1;exitY=0.5;exitDx=0;exitDy=0;fontFamily=computer modern;fontSource=https%3A%2F%2Fwww.1001fonts.com%2Fdownload%2Ffont%2Fcmu.classical-serif-italic.ttf;" parent="1" source="lhCSw-sXu7dCyDBw4n1x-77" edge="1">
          <mxGeometry width="50" height="50" relative="1" as="geometry">
            <mxPoint x="485" y="700" as="sourcePoint" />
            <mxPoint x="520" y="670" as="targetPoint" />
            <Array as="points">
              <mxPoint x="500" y="700" />
            </Array>
          </mxGeometry>
        </mxCell>
        <mxCell id="lhCSw-sXu7dCyDBw4n1x-80" value="&lt;font&gt;Retry&lt;/font&gt;" style="shape=hexagon;perimeter=hexagonPerimeter2;whiteSpace=wrap;html=1;fixedSize=1;size=10;fillColor=none;labelBackgroundColor=default;fontFamily=computer modern;fontSource=https%3A%2F%2Fwww.1001fonts.com%2Fdownload%2Ffont%2Fcmu.classical-serif-italic.ttf;" parent="1" vertex="1">
          <mxGeometry x="520" y="645" width="70" height="30" as="geometry" />
        </mxCell>
        <mxCell id="lhCSw-sXu7dCyDBw4n1x-81" value="&lt;font&gt;Listening&lt;br&gt;&lt;/font&gt;" style="shape=hexagon;perimeter=hexagonPerimeter2;whiteSpace=wrap;html=1;fixedSize=1;size=10;fillColor=none;labelBackgroundColor=default;fontFamily=computer modern;fontSource=https%3A%2F%2Fwww.1001fonts.com%2Fdownload%2Ffont%2Fcmu.classical-serif-italic.ttf;" parent="1" vertex="1">
          <mxGeometry x="590" y="645" width="120" height="30" as="geometry" />
        </mxCell>
        <mxCell id="lhCSw-sXu7dCyDBw4n1x-73" value="&lt;font data-font-src=&quot;https://www.1001fonts.com/download/font/cmu.classical-serif-italic.ttf&quot;&gt;&lt;span style=&quot;background-color: rgb(255, 255, 255);&quot;&gt;Transmission not heard&lt;/span&gt;&lt;/font&gt;" style="text;html=1;align=center;verticalAlign=middle;whiteSpace=wrap;rounded=0;fontFamily=computer modern;fontSource=https%3A%2F%2Fwww.1001fonts.com%2Fdownload%2Ffont%2Fcmu.classical-serif-italic.ttf;" parent="1" vertex="1">
          <mxGeometry x="190" y="720" width="150" height="20" as="geometry" />
        </mxCell>
        <mxCell id="lhCSw-sXu7dCyDBw4n1x-84" value="&lt;div&gt;Successfull&lt;/div&gt;&lt;div&gt;transaction&lt;br&gt;&lt;/div&gt;" style="text;html=1;align=center;verticalAlign=middle;whiteSpace=wrap;rounded=0;fontFamily=computer modern;fontSource=https%3A%2F%2Fwww.1001fonts.com%2Fdownload%2Ffont%2Fcmu.classical-serif-italic.ttf;" parent="1" vertex="1">
          <mxGeometry x="600" y="710" width="100" height="25" as="geometry" />
        </mxCell>
        <mxCell id="lhCSw-sXu7dCyDBw4n1x-85" value="" style="endArrow=none;html=1;rounded=0;endFill=0;startArrow=diamond;startFill=1;strokeWidth=1;fontFamily=computer modern;fontSource=https%3A%2F%2Fwww.1001fonts.com%2Fdownload%2Ffont%2Fcmu.classical-serif-italic.ttf;" parent="1" edge="1">
          <mxGeometry width="50" height="50" relative="1" as="geometry">
            <mxPoint x="710" y="600" as="sourcePoint" />
            <mxPoint x="710" y="800" as="targetPoint" />
          </mxGeometry>
        </mxCell>
        <mxCell id="lhCSw-sXu7dCyDBw4n1x-86" value="" style="endArrow=none;html=1;rounded=0;fontFamily=computer modern;fontSource=https%3A%2F%2Fwww.1001fonts.com%2Fdownload%2Ffont%2Fcmu.classical-serif-italic.ttf;" parent="1" edge="1">
          <mxGeometry width="50" height="50" relative="1" as="geometry">
            <mxPoint x="710" y="660" as="sourcePoint" />
            <mxPoint x="720" y="675" as="targetPoint" />
          </mxGeometry>
        </mxCell>
        <mxCell id="lhCSw-sXu7dCyDBw4n1x-87" value="" style="endArrow=none;html=1;rounded=0;fontFamily=computer modern;fontSource=https%3A%2F%2Fwww.1001fonts.com%2Fdownload%2Ffont%2Fcmu.classical-serif-italic.ttf;" parent="1" edge="1">
          <mxGeometry width="50" height="50" relative="1" as="geometry">
            <mxPoint x="710" y="660" as="sourcePoint" />
            <mxPoint x="720" y="645" as="targetPoint" />
          </mxGeometry>
        </mxCell>
        <mxCell id="lhCSw-sXu7dCyDBw4n1x-88" value="" style="endArrow=none;html=1;rounded=0;fontFamily=computer modern;fontSource=https%3A%2F%2Fwww.1001fonts.com%2Fdownload%2Ffont%2Fcmu.classical-serif-italic.ttf;" parent="1" edge="1">
          <mxGeometry width="50" height="50" relative="1" as="geometry">
            <mxPoint x="710" y="770" as="sourcePoint" />
            <mxPoint x="720" y="785" as="targetPoint" />
          </mxGeometry>
        </mxCell>
        <mxCell id="lhCSw-sXu7dCyDBw4n1x-89" value="" style="endArrow=none;html=1;rounded=0;fontFamily=computer modern;fontSource=https%3A%2F%2Fwww.1001fonts.com%2Fdownload%2Ffont%2Fcmu.classical-serif-italic.ttf;" parent="1" edge="1">
          <mxGeometry width="50" height="50" relative="1" as="geometry">
            <mxPoint x="710" y="770" as="sourcePoint" />
            <mxPoint x="720" y="755" as="targetPoint" />
          </mxGeometry>
        </mxCell>
        <mxCell id="lhCSw-sXu7dCyDBw4n1x-90" value="" style="endArrow=none;html=1;rounded=0;fontFamily=computer modern;fontSource=https%3A%2F%2Fwww.1001fonts.com%2Fdownload%2Ffont%2Fcmu.classical-serif-italic.ttf;" parent="1" edge="1">
          <mxGeometry width="50" height="50" relative="1" as="geometry">
            <mxPoint x="720" y="675" as="sourcePoint" />
            <mxPoint x="760" y="675" as="targetPoint" />
          </mxGeometry>
        </mxCell>
        <mxCell id="lhCSw-sXu7dCyDBw4n1x-91" value="" style="endArrow=none;html=1;rounded=0;fontFamily=computer modern;fontSource=https%3A%2F%2Fwww.1001fonts.com%2Fdownload%2Ffont%2Fcmu.classical-serif-italic.ttf;" parent="1" edge="1">
          <mxGeometry width="50" height="50" relative="1" as="geometry">
            <mxPoint x="720" y="645" as="sourcePoint" />
            <mxPoint x="760" y="645" as="targetPoint" />
          </mxGeometry>
        </mxCell>
        <mxCell id="lhCSw-sXu7dCyDBw4n1x-92" value="" style="endArrow=none;html=1;rounded=0;fontFamily=computer modern;fontSource=https%3A%2F%2Fwww.1001fonts.com%2Fdownload%2Ffont%2Fcmu.classical-serif-italic.ttf;" parent="1" edge="1">
          <mxGeometry width="50" height="50" relative="1" as="geometry">
            <mxPoint x="720" y="785" as="sourcePoint" />
            <mxPoint x="760" y="785" as="targetPoint" />
          </mxGeometry>
        </mxCell>
        <mxCell id="lhCSw-sXu7dCyDBw4n1x-93" value="" style="endArrow=none;html=1;rounded=0;fontFamily=computer modern;fontSource=https%3A%2F%2Fwww.1001fonts.com%2Fdownload%2Ffont%2Fcmu.classical-serif-italic.ttf;" parent="1" edge="1">
          <mxGeometry width="50" height="50" relative="1" as="geometry">
            <mxPoint x="720" y="755" as="sourcePoint" />
            <mxPoint x="760" y="755" as="targetPoint" />
          </mxGeometry>
        </mxCell>
        <mxCell id="lhCSw-sXu7dCyDBw4n1x-94" value="&lt;font data-font-src=&quot;https://www.1001fonts.com/download/font/cmu.classical-serif-italic.ttf&quot;&gt;ID=n-1&lt;/font&gt;" style="text;html=1;align=center;verticalAlign=middle;whiteSpace=wrap;rounded=0;fontFamily=computer modern;fontSource=https%3A%2F%2Fwww.1001fonts.com%2Fdownload%2Ffont%2Fcmu.classical-serif-italic.ttf;" parent="1" vertex="1">
          <mxGeometry x="190" y="600" width="50" height="30" as="geometry" />
        </mxCell>
        <mxCell id="lhCSw-sXu7dCyDBw4n1x-96" value="&lt;div&gt;&lt;font data-font-src=&quot;https://www.1001fonts.com/download/font/cmu.classical-serif-italic.ttf&quot;&gt;RF transmission &amp;amp; Ultrasonic pulse&lt;/font&gt;&lt;font data-font-src=&quot;https://www.1001fonts.com/download/font/cmu.classical-serif-italic.ttf&quot;&gt;&lt;br&gt;&lt;/font&gt;&lt;/div&gt;" style="text;html=1;align=center;verticalAlign=middle;whiteSpace=wrap;rounded=0;fontFamily=computer modern;fontSource=https%3A%2F%2Fwww.1001fonts.com%2Fdownload%2Ffont%2Fcmu.classical-serif-italic.ttf;fontStyle=0" parent="1" vertex="1">
          <mxGeometry x="540" y="490" width="230" height="30" as="geometry" />
        </mxCell>
        <mxCell id="lhCSw-sXu7dCyDBw4n1x-97" value="" style="endArrow=none;html=1;rounded=0;endFill=0;startArrow=diamond;startFill=1;fontFamily=computer modern;fontSource=https%3A%2F%2Fwww.1001fonts.com%2Fdownload%2Ffont%2Fcmu.classical-serif-italic.ttf;fontStyle=0" parent="1" edge="1">
          <mxGeometry width="50" height="50" relative="1" as="geometry">
            <mxPoint x="770" y="490" as="sourcePoint" />
            <mxPoint x="770" y="519.64" as="targetPoint" />
          </mxGeometry>
        </mxCell>
        <mxCell id="lhCSw-sXu7dCyDBw4n1x-98" value="&lt;font data-font-src=&quot;https://www.1001fonts.com/download/font/cmu.classical-serif-italic.ttf&quot;&gt;ID=n&lt;/font&gt;" style="text;html=1;align=center;verticalAlign=middle;whiteSpace=wrap;rounded=0;fontFamily=computer modern;fontSource=https%3A%2F%2Fwww.1001fonts.com%2Fdownload%2Ffont%2Fcmu.classical-serif-italic.ttf;" parent="1" vertex="1">
          <mxGeometry x="310" y="600" width="50" height="30" as="geometry" />
        </mxCell>
        <mxCell id="lhCSw-sXu7dCyDBw4n1x-99" value="&lt;font data-font-src=&quot;https://www.1001fonts.com/download/font/cmu.classical-serif-italic.ttf&quot;&gt;ID=n&lt;/font&gt;" style="text;html=1;align=center;verticalAlign=middle;whiteSpace=wrap;rounded=0;fontFamily=computer modern;fontSource=https%3A%2F%2Fwww.1001fonts.com%2Fdownload%2Ffont%2Fcmu.classical-serif-italic.ttf;" parent="1" vertex="1">
          <mxGeometry x="540" y="600" width="50" height="30" as="geometry" />
        </mxCell>
        <mxCell id="lhCSw-sXu7dCyDBw4n1x-100" value="&lt;font data-font-src=&quot;https://www.1001fonts.com/download/font/cmu.classical-serif-italic.ttf&quot;&gt;ID=n&lt;/font&gt;+1" style="text;html=1;align=center;verticalAlign=middle;whiteSpace=wrap;rounded=0;fontFamily=computer modern;fontSource=https%3A%2F%2Fwww.1001fonts.com%2Fdownload%2Ffont%2Fcmu.classical-serif-italic.ttf;" parent="1" vertex="1">
          <mxGeometry x="660" y="600" width="50" height="30" as="geometry" />
        </mxCell>
        <mxCell id="lhCSw-sXu7dCyDBw4n1x-101" value="&lt;font data-font-src=&quot;https://www.1001fonts.com/download/font/cmu.classical-serif-italic.ttf&quot;&gt;ID=0&lt;/font&gt;" style="text;html=1;align=center;verticalAlign=middle;whiteSpace=wrap;rounded=0;fontFamily=computer modern;fontSource=https%3A%2F%2Fwww.1001fonts.com%2Fdownload%2Ffont%2Fcmu.classical-serif-italic.ttf;fontStyle=0" parent="1" vertex="1">
          <mxGeometry x="350" y="280" width="50" height="30" as="geometry" />
        </mxCell>
        <mxCell id="lhCSw-sXu7dCyDBw4n1x-102" value="&lt;font data-font-src=&quot;https://www.1001fonts.com/download/font/cmu.classical-serif-italic.ttf&quot;&gt;ID=1&lt;/font&gt;" style="text;html=1;align=center;verticalAlign=middle;whiteSpace=wrap;rounded=0;fontFamily=computer modern;fontSource=https%3A%2F%2Fwww.1001fonts.com%2Fdownload%2Ffont%2Fcmu.classical-serif-italic.ttf;fontStyle=0" parent="1" vertex="1">
          <mxGeometry x="470" y="280" width="50" height="30" as="geometry" />
        </mxCell>
        <mxCell id="lhCSw-sXu7dCyDBw4n1x-103" value="&lt;font data-font-src=&quot;https://www.1001fonts.com/download/font/cmu.classical-serif-italic.ttf&quot;&gt;ID=2&lt;/font&gt;" style="text;html=1;align=center;verticalAlign=middle;whiteSpace=wrap;rounded=0;fontFamily=computer modern;fontSource=https%3A%2F%2Fwww.1001fonts.com%2Fdownload%2Ffont%2Fcmu.classical-serif-italic.ttf;fontStyle=0" parent="1" vertex="1">
          <mxGeometry x="590" y="280" width="50" height="30" as="geometry" />
        </mxCell>
        <mxCell id="WyEc9KDGRfgB501_V8iS-1" value="" style="endArrow=classic;html=1;rounded=0;" edge="1" parent="1">
          <mxGeometry width="50" height="50" relative="1" as="geometry">
            <mxPoint x="100" y="520" as="sourcePoint" />
            <mxPoint x="760" y="520" as="targetPoint" />
          </mxGeometry>
        </mxCell>
        <mxCell id="WyEc9KDGRfgB501_V8iS-2" value="$$t$$" style="text;html=1;align=center;verticalAlign=middle;whiteSpace=wrap;rounded=0;" vertex="1" parent="1">
          <mxGeometry x="100" y="500" width="30" height="20" as="geometry" />
        </mxCell>
        <mxCell id="WyEc9KDGRfgB501_V8iS-3" value="" style="endArrow=baseDash;html=1;rounded=0;endFill=0;startArrow=baseDash;startFill=0;" edge="1" parent="1">
          <mxGeometry width="50" height="50" relative="1" as="geometry">
            <mxPoint x="370" y="630" as="sourcePoint" />
            <mxPoint x="510" y="630" as="targetPoint" />
          </mxGeometry>
        </mxCell>
        <mxCell id="WyEc9KDGRfgB501_V8iS-5" value="&lt;font face=&quot;computer modern&quot;&gt;$$t_{trans}$$&lt;/font&gt;" style="text;html=1;align=center;verticalAlign=middle;whiteSpace=wrap;rounded=0;" vertex="1" parent="1">
          <mxGeometry x="250" y="620" width="50" as="geometry" />
        </mxCell>
        <mxCell id="WyEc9KDGRfgB501_V8iS-6" value="&lt;font face=&quot;computer modern&quot;&gt;$$2\cdot t_{trans}$$&lt;/font&gt;" style="text;html=1;align=center;verticalAlign=middle;whiteSpace=wrap;rounded=0;" vertex="1" parent="1">
          <mxGeometry x="375" y="610" width="50" height="20" as="geometry" />
        </mxCell>
        <mxCell id="WyEc9KDGRfgB501_V8iS-7" value="" style="endArrow=baseDash;html=1;rounded=0;endFill=0;startArrow=baseDash;startFill=0;" edge="1" parent="1">
          <mxGeometry width="50" height="50" relative="1" as="geometry">
            <mxPoint x="250" y="630" as="sourcePoint" />
            <mxPoint x="350" y="630" as="targetPoint" />
          </mxGeometry>
        </mxCell>
        <mxCell id="WyEc9KDGRfgB501_V8iS-8" value="&lt;div&gt;&lt;font data-font-src=&quot;https://www.1001fonts.com/download/font/cmu.classical-serif-italic.ttf&quot;&gt;RF transmission &amp;amp; Ultrasonic pulse&lt;/font&gt;&lt;font data-font-src=&quot;https://www.1001fonts.com/download/font/cmu.classical-serif-italic.ttf&quot;&gt;&lt;br&gt;&lt;/font&gt;&lt;/div&gt;" style="text;html=1;align=center;verticalAlign=middle;whiteSpace=wrap;rounded=0;fontFamily=computer modern;fontSource=https%3A%2F%2Fwww.1001fonts.com%2Fdownload%2Ffont%2Fcmu.classical-serif-italic.ttf;fontStyle=0" vertex="1" parent="1">
          <mxGeometry x="540" y="800" width="230" height="30" as="geometry" />
        </mxCell>
        <mxCell id="WyEc9KDGRfgB501_V8iS-9" value="" style="endArrow=none;html=1;rounded=0;endFill=0;startArrow=diamond;startFill=1;fontFamily=computer modern;fontSource=https%3A%2F%2Fwww.1001fonts.com%2Fdownload%2Ffont%2Fcmu.classical-serif-italic.ttf;fontStyle=0" edge="1" parent="1">
          <mxGeometry width="50" height="50" relative="1" as="geometry">
            <mxPoint x="770" y="800" as="sourcePoint" />
            <mxPoint x="770" y="829.64" as="targetPoint" />
          </mxGeometry>
        </mxCell>
        <mxCell id="WyEc9KDGRfgB501_V8iS-10" value="" style="endArrow=classic;html=1;rounded=0;" edge="1" parent="1">
          <mxGeometry width="50" height="50" relative="1" as="geometry">
            <mxPoint x="100" y="830" as="sourcePoint" />
            <mxPoint x="760" y="830" as="targetPoint" />
          </mxGeometry>
        </mxCell>
        <mxCell id="WyEc9KDGRfgB501_V8iS-11" value="$$t$$" style="text;html=1;align=center;verticalAlign=middle;whiteSpace=wrap;rounded=0;" vertex="1" parent="1">
          <mxGeometry x="100" y="810" width="30" height="20" as="geometry" />
        </mxCell>
      </root>
    </mxGraphModel>
  </diagram>
</mxfile>
